# xmcd
#
# Track frame offsets:
#	150
#	18135
#	32955
#	46020
#	58825
#	73330
#	84522
#	99085
#	111110
#	124060
#	138532
#	151670
#
# Disc length: 2213 seconds
#
# Revision: 1
# Processed by: cddbd v1.5.2PL0 Copyright (c) Steve Scherf et al.
# Submitted via: EasyCDDAExtractor 16.0.6.1
#
DISCID=9608a30c
DTITLE=Forrózão do Amado
DYEAR=1900
DGENRE=Country
TTITLE0=Forrózão 01
TTITLE1=Forrózão 02
TTITLE2=Forrózão 03
TTITLE3=Forrózão 04
TTITLE4=Forrózão 05
TTITLE5=Forrózão 06
TTITLE6=Forrózão 07
TTITLE7=Forrózão 08
TTITLE8=Forrózão 09
TTITLE9=Forrózão 10
TTITLE10=Forrózão 11
TTITLE11=Forrózão 12
EXTD=
EXTT0=
EXTT1=
EXTT2=
EXTT3=
EXTT4=
EXTT5=
EXTT6=
EXTT7=
EXTT8=
EXTT9=
EXTT10=
EXTT11=
PLAYORDER=
